<svg width="61" height="30" viewBox="0 0 61 30" fill="none" xmlns="http://www.w3.org/2000/svg">
<path fill-rule="evenodd" clip-rule="evenodd" d="M0.55957 9.74258V19.3449H5.72789H10.8962V17.9431V16.5413H7.23531H3.57442V8.34078V0.140228H2.067H0.55957V9.74258ZM17.6437 8.62675C17.6437 16.6929 17.6572 17.1389 17.9169 17.6333C18.2349 18.2389 18.6639 18.6471 19.3665 19.0131C19.837 19.2582 20.3079 19.2749 26.7601 19.2749C33.5405 19.2749 33.6603 19.2699 34.2254 18.973C34.9462 18.5943 35.3699 18.1545 35.6542 17.4901C35.8464 17.0411 35.8764 15.8341 35.8764 8.55554V0.140228H34.369H32.8615V8.17256C32.8615 14.233 32.8192 16.2463 32.6893 16.3731C32.4418 16.6148 21.0784 16.6148 20.8309 16.3731C20.7009 16.2463 20.6586 14.233 20.6586 8.17256V0.140228H19.1512H17.6437V8.62675ZM42.5002 3.05176e-05C42.5002 3.05176e-05 44.3898 2.43064 46.2848 4.95472C48.1799 7.47895 49.747 9.59035 49.7674 9.64684C49.7878 9.70333 48.1928 11.8927 46.2228 14.5122L42.641 19.2749L44.3832 19.3144C45.3413 19.3362 46.198 19.3269 46.2867 19.2935C46.3754 19.2603 47.6065 17.6825 49.0223 15.7873C50.4383 13.8921 51.6613 12.3602 51.7403 12.3832C51.8192 12.4062 53.0467 13.9805 54.468 15.8819L57.0521 19.3389L58.9532 19.342L60.8544 19.3449L58.5165 16.2259C57.2306 14.5105 53.9926 10.1895 51.321 6.62357L46.4002 3.05176e-05H42.5002ZM28.9855 24.2863L28.9856 25.1624L27.6156 25.1136C26.0526 25.058 25.648 25.1268 25.249 25.5164C24.9981 25.7614 24.9655 25.9874 24.9655 27.4817C24.9655 29.0907 24.9823 29.1866 25.3203 29.5167C25.6664 29.8547 25.7255 29.8628 27.7608 29.8502L29.8467 29.8373V26.6237V23.4102H29.416H28.9853L28.9855 24.2863ZM21.2328 23.9709C21.2328 24.3448 21.2806 24.3914 21.6635 24.3914C22.0464 24.3914 22.0942 24.3448 22.0942 23.9709C22.0942 23.597 22.0464 23.5504 21.6635 23.5504C21.2806 23.5504 21.2328 23.597 21.2328 23.9709ZM0.55957 27.4855V29.8585H0.990263H1.42096C1.42096 29.8585 1.42497 30.6996 1.42296 28.2814C1.42096 25.8633 1.40516 26.0736 2.51449 26.0736H3.43086V25.5849V25.0961L1.99521 25.1044L0.55957 25.1125V27.4855ZM6.05895 25.4306C5.68109 25.7478 5.65295 25.8485 5.60572 27.05C5.54384 28.6183 5.64835 29.2145 6.04875 29.5787C6.32741 29.8321 6.5561 29.8585 8.48274 29.8585H10.6091V29.4419V29.0252L8.63507 28.9863L6.66106 28.9473L6.61726 28.5071L6.57348 28.0668L8.24601 28.0151C10.1784 28.0151 9.99311 27.8959 10.1784 27.6857C10.4481 27.3795 10.3505 25.4566 10.1784 25.2325C9.96304 24.9522 9.317 25.1044 8.1158 25.0923C6.57435 25.0923 6.43423 25.1153 6.05895 25.4306ZM13.8328 25.4365C13.531 25.731 13.4804 25.9113 13.4804 26.6901C13.4804 27.9489 13.6267 28.0361 15.7376 28.0361H17.3566V28.5268V29.0174H15.4185H13.4804V29.4379V29.8585H15.5685C17.5942 29.8585 17.6673 29.8482 18.0091 29.5143C18.3036 29.227 18.3616 29.0343 18.3616 28.3445C18.3616 27.146 18.2388 27.0734 16.1303 27.0246L14.4135 26.9848V26.5642V26.1437L16.3875 26.1047L18.3616 26.0657V25.579V25.0923H16.2734C14.2477 25.0923 14.1746 25.1026 13.8328 25.4365ZM21.2328 27.4754V29.8585H21.6635H22.0942V27.4754V25.0923H21.6635H21.2328V27.4754ZM33.3445 25.2563C32.8504 25.4899 32.718 25.9912 32.718 27.6286C32.718 29.0785 32.7389 29.1908 33.0704 29.5143C33.4123 29.8482 33.4853 29.8585 35.511 29.8585H37.5992V29.4379V29.0174H35.6611H33.7229V28.5391V28.0609L35.2909 28.0134C36.7178 27.9702 36.8924 27.9355 37.2291 27.6262C37.5377 27.3428 37.5992 27.1613 37.5992 26.5334C37.5992 25.9209 37.5334 25.7163 37.2467 25.4365C36.9128 25.1104 36.8094 25.0929 35.2727 25.1019C34.3809 25.1071 33.5132 25.1766 33.3445 25.2563ZM40.4705 27.4854V29.8585H40.9729H41.4754V27.966V26.0736H42.9828H44.4903V27.966V29.8585H44.9949H45.4997L45.4536 27.8071C45.4076 25.7646 45.4058 25.7541 45.011 25.4225C44.6315 25.1038 44.525 25.09 42.5424 25.1007L40.4705 25.1121V27.4854ZM48.6305 25.5139L48.199 25.9352L48.2468 27.6292C48.3114 29.9134 48.2407 29.8585 51.1102 29.8585H53.2477V29.4419V29.0252L51.2737 28.9863L49.2997 28.9473L49.2588 27.5104L49.2178 26.0736H51.2328H53.2477V25.583V25.0923H51.1549H49.0622L48.6305 25.5139ZM56.383 25.5139L55.9514 25.9352L55.9992 27.6292C56.0638 29.9134 55.9932 29.8585 58.8626 29.8585H61.0002V29.4419V29.0252L59.0262 28.9863L57.0521 28.9473L57.0072 28.4917L56.9621 28.0361H58.3398C59.9823 28.0361 60.5838 27.8382 60.8503 27.2099C61.1099 26.598 60.9515 25.7955 60.4945 25.4077C60.1553 25.12 59.9781 25.0923 58.4687 25.0923C56.8216 25.0923 56.813 25.094 56.383 25.5139ZM9.60413 26.5642V27.0549H8.0967H6.58927V26.5642V26.0736H8.0967H9.60413V26.5642ZM28.9135 27.5455V28.9473L27.442 28.9872L25.9705 29.0272V27.5455V26.0638L27.442 26.1037L28.9135 26.1437V27.5455ZM36.7109 26.5292L36.666 26.9848L35.1945 27.0247L33.7229 27.0647V26.5691V26.0736H35.2394H36.756L36.7109 26.5292ZM59.9684 26.5292L59.9234 26.9848L58.4519 27.0247L56.9804 27.0647V26.5691V26.0736H58.4968H60.0134L59.9684 26.5292Z" fill="#009EE3"/>
</svg>
