<svg width="52" height="52" viewBox="0 0 52 52" fill="none" xmlns="http://www.w3.org/2000/svg">
<path d="M28.4032 20.2307L28.5168 20.5735H28.8779H30.9468L29.2816 21.7596L28.9809 21.9737L29.097 22.3241L29.7384 24.2593L28.0454 23.0534L27.7553 22.8467L27.4652 23.0534L25.7722 24.2593L26.4135 22.3241L26.5297 21.9737L26.229 21.7596L24.5638 20.5735H26.6327H26.9937L27.1073 20.2307L27.7553 18.2756L28.4032 20.2307Z" stroke="#009EE3"/>
<path d="M27.784 11.6855C27.8804 11.5198 28.1197 11.5198 28.2161 11.6855L29.3861 13.6954C29.8347 14.4661 30.7911 14.7762 31.6065 14.4154L33.7641 13.4609C33.9406 13.3828 34.1352 13.5257 34.1137 13.7174L33.8615 15.9619L34.6068 16.0457L33.8615 15.9619C33.7602 16.8627 34.3636 17.6917 35.2519 17.8723L37.5184 18.333C37.7096 18.3719 37.7846 18.605 37.6519 18.748L36.1212 20.398C35.4984 21.0693 35.4984 22.1071 36.1212 22.7784L37.6519 24.4284C37.7846 24.5714 37.7096 24.8045 37.5184 24.8434L35.2519 25.3041C34.3636 25.4846 33.7602 26.3136 33.8615 27.2144L34.1137 29.459C34.1352 29.6507 33.9406 29.7936 33.7641 29.7155L31.6065 28.761C30.7911 28.4002 29.8347 28.7103 29.3861 29.481L28.2161 31.4909C28.1197 31.6565 27.8804 31.6565 27.784 31.4909L26.614 29.481C26.1654 28.7103 25.2091 28.4002 24.3936 28.761L22.2361 29.7155C22.0596 29.7936 21.8649 29.6507 21.8865 29.459L22.1387 27.2144C22.2399 26.3136 21.6365 25.4846 20.7482 25.3041L18.4817 24.8434C18.2905 24.8045 18.2156 24.5714 18.3483 24.4284L19.879 22.7784C20.5017 22.1071 20.5017 21.0693 19.879 20.398L18.3483 18.748C18.2156 18.605 18.2905 18.3719 18.4817 18.333L20.7482 17.8723C21.6365 17.6917 22.2399 16.8627 22.1387 15.9619L21.8865 13.7174C21.8649 13.5257 22.0596 13.3828 22.2361 13.4609L24.3936 14.4154C25.2091 14.7762 26.1654 14.4661 26.614 13.6954L27.784 11.6855Z" stroke="#009EE3" stroke-width="1.5"/>
<path d="M22.5 28.4512L19.6465 35.457L22 35.3137L23.6193 36.9943L26.5564 29.6989" stroke="#009EE3" stroke-width="1.5" stroke-linejoin="round"/>
<path d="M33.484 28.467L36.7082 35.3165L34.3503 35.2944L32.8231 37.0559L29.0999 29.4313" stroke="#009EE3" stroke-width="1.5" stroke-linejoin="round"/>
<path d="M9 8.84306H1V4.67674C1.00012 -0.225204 8.99994 -0.225322 9 4.67674V8.84306ZM9 8.84306V47.3135C9 52.2155 17 52.2155 17 47.3136V44.1373H48M48 44.1373H51V48.0588C51 49.5294 49.4 51 47 51H13M48 44.1373V3.94121C48 2.47059 46.5 1 44 1H5" stroke="#009EE3" stroke-width="2" stroke-linejoin="round"/>
</svg>
