<svg width="700" height="104" viewBox="0 0 700 104" fill="none" xmlns="http://www.w3.org/2000/svg">
<path fill-rule="evenodd" clip-rule="evenodd" d="M0 33.5468V67.0935L27.8465 66.9564L55.693 66.8194L57.899 65.6045C59.1118 64.9363 60.7826 63.442 61.6118 62.2839L63.1188 60.1783L63.2777 49.4687C63.3891 41.9748 63.2599 38.3403 62.848 37.3645C62.2173 35.8692 59.447 33.8141 57.9207 33.7742C61.8326 31.9135 63.4118 30.4755 63.2554 18.2235C63.1306 8.47569 63.0277 7.3609 62.0846 5.58861C60.8628 3.29246 57.8792 1.08426 55.1613 0.465638C54.0925 0.222173 41.244 0.0180701 26.6089 0.0117526L0 8.96513e-05V33.5468ZM97.895 0.681889C95.09 1.68199 92.793 3.62242 91.6346 5.97203C90.6123 8.04562 90.594 8.5967 90.594 37.5725V67.0624H96.0395H101.485V55.3994V43.7364H122.277H143.069V55.3994V67.0624H148.515H153.96V37.9773C153.96 17.2944 153.795 8.41543 153.389 7.24038C152.498 4.66092 151.123 3.03344 148.606 1.5814L146.287 0.243069L123.02 0.131298C104.396 0.0418821 99.3816 0.151709 97.895 0.681889ZM172.624 0.607538C172.881 0.941877 178.811 8.89993 185.803 18.2925L198.515 35.3701V51.2162V67.0624H203.713H208.911V51.3163V35.5703L222.03 18.0442C229.245 8.40474 235.148 0.401491 235.148 0.259105C235.148 0.11672 232.197 0.00106156 228.589 0.00203348L222.03 0.00446327L213.2 11.9051C208.344 18.4505 204.189 23.916 203.967 24.0507C203.745 24.1858 199.513 18.8295 194.564 12.1481L185.564 8.96513e-05H178.86C173.578 8.96513e-05 172.255 0.128869 172.624 0.607538ZM249.01 5.10265V10.2052H259.901H270.792V38.6338V67.0624H276.237H281.683V38.6338V10.2052H292.574H303.465V5.10265V8.96513e-05H276.237H249.01V5.10265ZM326.237 33.5312V67.0624H331.683H337.128V33.5312V8.96513e-05H331.683H326.237V33.5312ZM364.356 33.5312V67.0624H369.802H375.247V52.7266V38.3908L384.529 38.3981L393.812 38.4059L403.96 52.7178L414.109 67.0298L420.893 67.0463L427.678 67.0624L416.035 50.4844C409.184 40.7278 404.505 33.6197 404.665 33.2105C404.814 32.8285 409.861 25.493 415.88 16.91C421.899 8.3265 426.938 1.01088 427.078 0.652246C427.284 0.126439 426.055 0.00397731 420.721 0.0200139L414.109 0.0394523L404.012 14.3558L393.916 28.6716H384.581H375.247V14.3359V8.96513e-05H369.802H364.356V33.5312ZM681.126 6.90216C678.301 10.6985 675.504 14.8073 675.172 15.2534L681.599 24.3573L684.272 20.8045C688.757 14.8417 699.604 0.644867 699.999 0C699.999 0 698.101 8.96513e-05 692.912 8.96513e-05H686.262L681.126 6.90216ZM491.584 33.7742V67.0624H509.406H527.227V62.2028V57.3432H514.604H501.98V28.9146V0.486048H496.782H491.584V33.7742ZM550.495 29.906C550.495 57.8685 550.541 59.4148 551.437 61.1288C552.533 63.2281 554.012 64.6433 556.435 65.9121C558.057 66.7616 559.681 66.8194 581.93 66.8194C605.311 66.8194 605.724 66.8024 607.673 65.7731C610.158 64.4601 611.619 62.9356 612.6 60.6322C613.262 59.0756 613.366 54.8915 613.366 29.6591V0.486048H608.168H602.97V28.3315C602.97 49.3409 602.824 56.3202 602.376 56.76C601.522 57.5978 562.338 57.5978 561.485 56.76C561.037 56.3202 560.891 49.3409 560.891 28.3315V0.486048H555.693H550.495V29.906ZM637.211 0.876273C637.302 1.09107 642.722 8.42612 649.257 17.1763C655.792 25.9269 661.196 33.2465 661.266 33.4423C661.336 33.6381 655.836 41.2278 649.043 50.3089L636.692 66.8194L642.7 66.9564C646.003 67.0322 648.957 66.9997 649.263 66.884C649.569 66.7688 653.814 61.2994 658.697 54.7292C663.579 48.1591 667.797 42.8485 668.069 42.9282C668.341 43.0079 672.574 48.4657 677.475 55.0572L686.386 67.0415L692.941 67.0522L699.497 67.0624L691.435 56.2498C687.001 50.3031 675.836 35.3234 666.623 22.9616L649.873 0.486048H643.459C639.932 0.486048 637.12 0.661479 637.211 0.876273ZM52.2277 10.1945V28.6823H10.8911V19.4384V10.1945H52.2277ZM142.954 21.9897L143.087 33.5312H122.286H101.485V22.1924C101.485 15.9556 101.636 10.7048 101.821 10.524C102.005 10.3427 111.306 10.2519 122.489 10.3214L142.822 10.4482L142.954 21.9897ZM52.2277 38.3908V56.7411H31.5594L10.8911 56.8679V47.6294V38.3908H31.1277C47.7401 38.3908 52.2277 38.3908 52.2277 38.3908ZM589.604 84.1924L589.604 87.2296L584.88 87.0605C579.491 86.8676 578.096 87.1062 576.72 88.4567C575.854 89.3061 575.742 90.0895 575.742 95.2698C575.742 100.848 575.8 101.18 576.965 102.324C578.159 103.496 578.363 103.524 585.381 103.481L592.574 103.436V92.2953V81.1552H591.089H589.604L589.604 84.1924ZM562.871 83.099C562.871 84.395 563.036 84.5569 564.356 84.5569C565.676 84.5569 565.841 84.395 565.841 83.099C565.841 81.8029 565.676 81.6411 564.356 81.6411C563.036 81.6411 562.871 81.8029 562.871 83.099ZM491.584 95.2829V103.509H493.069H494.554C494.554 103.509 494.568 106.425 494.561 98.0422C494.554 89.6594 494.5 90.3884 498.325 90.3884H501.485V88.6943V86.9998L496.534 87.0285L491.584 87.0566V95.2829ZM510.547 88.1593C509.244 89.259 509.147 89.6079 508.984 93.7731C508.771 99.21 509.131 101.277 510.512 102.539C511.473 103.418 512.261 103.509 518.905 103.509H526.237V102.065V100.621L519.43 100.486L512.623 100.351L512.472 98.8246L512.321 97.2982L518.089 97.1189C524.752 97.1189 524.113 96.7058 524.752 95.9769C525.682 94.9156 525.346 88.2496 524.752 87.4726C524.01 86.5007 521.782 87.0284 517.64 86.9867C512.324 86.9867 511.841 87.0663 510.547 88.1593ZM537.354 88.1797C536.313 89.2007 536.138 89.8256 536.138 92.5256C536.138 96.8895 536.643 97.1918 543.922 97.1918H549.505V98.8926V100.593H542.821H536.138V102.051V103.509H543.339C550.324 103.509 550.576 103.474 551.755 102.316C552.77 101.32 552.97 100.652 552.97 98.2609C552.97 94.1059 552.547 93.8542 545.276 93.6851L539.356 93.5471V92.0892V90.6313L546.163 90.4963L552.97 90.3612V88.6739V86.9867H545.769C538.784 86.9867 538.532 87.0221 537.354 88.1797ZM562.871 95.248V103.509H564.356H565.841V95.248V86.9867H564.356H562.871V95.248ZM604.635 87.5552C602.931 88.3648 602.475 90.1026 602.475 95.7791C602.475 100.805 602.547 101.195 603.69 102.316C604.869 103.474 605.121 103.509 612.106 103.509H619.306V102.051V100.593H612.623H605.94V98.9354V97.2778L611.347 97.1131C616.267 96.9634 616.869 96.8429 618.03 95.7708C619.095 94.7882 619.306 94.1589 619.306 91.9823C619.306 89.8592 619.08 89.1497 618.091 88.1797C616.94 87.0493 616.583 86.9886 611.284 87.0197C608.209 87.0377 605.217 87.2787 604.635 87.5552ZM629.207 95.2825V103.509H630.94H632.673V96.9488V90.3884H637.871H643.069V96.9488V103.509H644.809H646.549L646.391 96.3977C646.232 89.3173 646.226 89.2809 644.864 88.1311C643.556 87.0265 643.189 86.9784 636.352 87.0158L629.207 87.0552V95.2825ZM657.346 88.4479L655.857 89.9087L656.022 95.781C656.245 103.7 656.001 103.509 665.896 103.509H673.267V102.065V100.621L666.46 100.486L659.653 100.351L659.512 95.3694L659.371 90.3884H666.319H673.267V88.6875V86.9867H666.05H658.834L657.346 88.4479ZM684.078 88.4479L682.59 89.9087L682.755 95.781C682.978 103.7 682.734 103.509 692.629 103.509H699.999V102.065V100.621L693.193 100.486L686.386 100.351L686.231 98.7711L686.075 97.1918H690.826C696.49 97.1918 698.564 96.5056 699.483 94.3275C700.378 92.2063 699.832 89.4242 698.256 88.0801C697.086 87.0824 696.475 86.9867 691.27 86.9867C685.591 86.9867 685.561 86.9925 684.078 88.4479ZM522.772 92.0892V93.7901H517.574H512.376V92.0892V90.3884H517.574H522.772V92.0892ZM589.356 95.4909V100.351L584.282 100.489L579.208 100.628V95.4909V90.3543L584.282 90.4928L589.356 90.6313V95.4909ZM616.244 91.9677L616.089 93.5471L611.014 93.6856L605.94 93.8241V92.1062V90.3884H611.169H616.399L616.244 91.9677ZM696.442 91.9677L696.287 93.5471L691.212 93.6856L686.138 93.8241V92.1062V90.3884H691.367H696.597L696.442 91.9677Z" fill="white"/>
<path fill-rule="evenodd" clip-rule="evenodd" d="M491.584 33.7742V67.0623H509.406H527.228V62.2027V57.3432H514.604H501.98V28.9146V0.486019H496.782H491.584V33.7742ZM550.495 29.9059C550.495 57.8685 550.542 59.4148 551.437 61.1288C552.534 63.2281 554.013 64.6432 556.436 65.9121C558.058 66.7615 559.682 66.8194 581.931 66.8194C605.312 66.8194 605.725 66.8023 607.673 65.7731C610.159 64.46 611.62 62.9356 612.6 60.6321C613.263 59.0756 613.367 54.8915 613.367 29.6591V0.486019H608.169H602.97V28.3314C602.97 49.3409 602.824 56.3202 602.376 56.76C601.523 57.5978 562.339 57.5978 561.485 56.76C561.037 56.3202 560.891 49.3409 560.891 28.3314V0.486019H555.693H550.495V29.9059ZM636.207 0C636.207 0 642.723 8.42609 649.258 17.1763C655.792 25.9269 661.196 33.2464 661.267 33.4423C661.337 33.6381 655.837 41.2278 649.044 50.3089L636.693 66.8194L642.7 66.9564C646.004 67.0322 648.958 66.9996 649.264 66.884C649.57 66.7688 653.815 61.2994 658.697 54.7292C663.58 48.159 667.797 42.8485 668.069 42.9282C668.342 43.0079 672.574 48.4657 677.475 55.0572L686.386 67.0414L692.942 67.0521L699.498 67.0623L691.436 56.2498C687.002 50.3031 675.836 35.3234 666.624 22.9616L649.655 0H636.207ZM589.605 84.1924L589.605 87.2296L584.881 87.0605C579.491 86.8676 578.096 87.1062 576.721 88.4566C575.855 89.3061 575.743 90.0895 575.743 95.2698C575.743 100.848 575.801 101.18 576.966 102.324C578.16 103.496 578.364 103.524 585.382 103.481L592.574 103.436V92.2952V81.1551H591.089H589.604L589.605 84.1924ZM562.872 83.099C562.872 84.395 563.036 84.5568 564.357 84.5568C565.677 84.5568 565.842 84.395 565.842 83.099C565.842 81.8029 565.677 81.6411 564.357 81.6411C563.036 81.6411 562.872 81.8029 562.872 83.099ZM491.584 95.2829V103.509H493.07H494.555C494.555 103.509 494.569 106.425 494.562 98.0422C494.555 89.6594 494.5 90.3883 498.326 90.3883H501.485V88.6943V86.9997L496.535 87.0284L491.584 87.0566V95.2829ZM510.548 88.1592C509.245 89.259 509.148 89.6079 508.985 93.773C508.772 99.2099 509.132 101.277 510.513 102.539C511.474 103.418 512.262 103.509 518.906 103.509H526.238V102.065V100.621L519.431 100.486L512.624 100.35L512.473 98.8246L512.322 97.2982L518.089 97.1189C524.753 97.1189 524.114 96.7058 524.753 95.9769C525.683 94.9155 525.346 88.2496 524.753 87.4726C524.01 86.5007 521.782 87.0284 517.64 86.9866C512.325 86.9866 511.842 87.0663 510.548 88.1592ZM537.354 88.1797C536.314 89.2007 536.139 89.8256 536.139 92.5256C536.139 96.8895 536.643 97.1918 543.923 97.1918H549.505V98.8926V100.593H542.822H536.139V102.051V103.509H543.339C550.325 103.509 550.576 103.474 551.755 102.316C552.771 101.32 552.971 100.652 552.971 98.2609C552.971 94.1059 552.547 93.8542 545.276 93.6851L539.357 93.5471V92.0892V90.6313L546.164 90.4962L552.971 90.3611V88.6739V86.9866H545.77C538.785 86.9866 538.533 87.0221 537.354 88.1797ZM562.872 95.2479V103.509H564.357H565.842V95.2479V86.9866H564.357H562.872V95.2479ZM604.636 87.5552C602.932 88.3648 602.475 90.1026 602.475 95.7791C602.475 100.805 602.548 101.195 603.691 102.316C604.869 103.474 605.121 103.509 612.107 103.509H619.307V102.051V100.593H612.624H605.941V98.9354V97.2778L611.348 97.113C616.268 96.9634 616.87 96.8428 618.031 95.7708C619.095 94.7882 619.307 94.1589 619.307 91.9823C619.307 89.8591 619.08 89.1496 618.092 88.1797C616.94 87.0493 616.584 86.9886 611.285 87.0197C608.21 87.0377 605.218 87.2787 604.636 87.5552ZM629.208 95.2824V103.509H630.941H632.673V96.9488V90.3883H637.871H643.069V96.9488V103.509H644.81H646.55L646.391 96.3977C646.233 89.3173 646.226 89.2808 644.865 88.1311C643.557 87.0265 643.189 86.9784 636.353 87.0158L629.208 87.0552V95.2824ZM657.346 88.4479L655.858 89.9087L656.023 95.781C656.246 103.7 656.002 103.509 665.897 103.509H673.267V102.065V100.621L666.461 100.486L659.654 100.35L659.513 95.3694L659.371 90.3883H666.319H673.267V88.6875V86.9866H666.051H658.835L657.346 88.4479ZM684.079 88.4479L682.591 89.9087L682.756 95.781C682.978 103.7 682.735 103.509 692.629 103.509H700V102.065V100.621L693.193 100.486L686.386 100.35L686.231 98.7711L686.076 97.1918H690.826C696.49 97.1918 698.565 96.5056 699.483 94.3275C700.378 92.2063 699.832 89.4242 698.257 88.08C697.087 87.0824 696.476 86.9866 691.271 86.9866C685.591 86.9866 685.562 86.9925 684.079 88.4479ZM522.773 92.0892V93.79H517.575H512.377V92.0892V90.3883H517.575H522.773V92.0892ZM589.357 95.4909V100.35L584.282 100.489L579.208 100.627V95.4909V90.3543L584.282 90.4928L589.357 90.6313V95.4909ZM616.244 91.9677L616.089 93.5471L611.015 93.6856L605.941 93.8241V92.1062V90.3883H611.17H616.4L616.244 91.9677ZM696.442 91.9677L696.287 93.5471L691.213 93.6856L686.139 93.8241V92.1062V90.3883H691.368H696.598L696.442 91.9677Z" fill="#009EE3"/>
</svg>
