<svg width="203.00000000000003" height="30" xmlns="http://www.w3.org/2000/svg">

 <g>
  <title>background</title>
  <rect fill="none" id="canvas_background" height="402" width="582" y="-1" x="-1"/>
 </g>
 <g>
  <title>Layer 1</title>
  <path id="svg_1" fill="white" d="m0.571429,9.962674l0,9.67694l8.07549,-0.0395l8.07551,-0.0396l0.6397,-0.3504c0.3517,-0.1928 0.8363,-0.6238 1.0767,-0.9579l0.4371,-0.6074l0.046,-3.0893c0.0323,-2.1617 -0.0051,-3.2101 -0.1246,-3.4916c-0.1829,-0.4313 -0.9863,-1.02414 -1.4289,-1.03564c1.1345,-0.53675 1.5924,-0.95154 1.5471,-4.48577c-0.0362,-2.81188 -0.0661,-3.13345 -0.3395,-3.64469c-0.3544,-0.66235 -1.2196,-1.29933 -2.0078,-1.47778c-0.31,-0.07023 -4.036,-0.12911 -8.28022,-0.13093l-7.71658,-0.00336l0,9.67693zm28.3896,-9.48026c-0.8135,0.28849 -1.4796,0.84823 -1.8155,1.526c-0.2965,0.59815 -0.3018,0.75712 -0.3018,9.1155l0,8.5067l1.5792,0l1.5792,0l0,-3.3643l0,-3.3643l6.0297,0l6.0297,0l0,3.3643l0,3.3643l1.5792,0l1.5792,0l0,-8.3899c0,-5.96623 -0.0478,-8.52747 -0.1655,-8.86643c-0.2584,-0.74407 -0.6574,-1.21354 -1.3871,-1.6324l-0.6726,-0.38605l-6.7476,-0.03225c-5.4008,-0.02579 -6.855,0.00589 -7.2861,0.15883zm21.6713,-0.02145c0.0745,0.09644 1.7944,2.39204 3.822,5.10145l3.6864,4.9262l0,4.571l0,4.571l1.5074,0l1.5075,0l0,-4.5421l0,-4.5421l3.8044,-5.05564c2.0925,-2.78061 3.8045,-5.08924 3.8045,-5.13032c0,-0.04107 -0.856,-0.07443 -1.9023,-0.07415l-1.9022,0.0007l-2.5605,3.43287c-1.4082,1.88809 -2.6131,3.4647 -2.6776,3.50353c-0.0644,0.03897 -1.2916,-1.5061 -2.727,-3.43344l-2.6098,-3.50422l-1.9442,0c-1.532,0 -1.9156,0.03714 -1.8086,0.17522zm22.152,1.29667l0,1.47189l3.1584,0l3.1584,0l0,8.20059l0,8.2005l1.5792,0l1.5792,0l0,-8.2005l0,-8.20059l3.1584,0l3.1585,0l0,-1.47189l0,-1.47189l-7.8961,0l-7.896,0l0,1.47189zm22.396,8.20055l0,9.67243l1.5792,0l1.5792,0l0,-9.67243l0,-9.67244l-1.5792,0l-1.5792,0l0,9.67244zm11.0541,0l0,9.67243l1.58,0l1.579,0l0,-4.1353l0,-4.1353l2.692,0.0021l2.691,0.0022l2.944,4.1285l2.943,4.1284l1.967,0.0048l1.968,0.0046l-3.377,-4.7821c-1.987,-2.8144 -3.344,-4.86481 -3.297,-4.98285c0.043,-0.11018 1.507,-2.2262 3.252,-4.70207c1.746,-2.476 3.207,-4.58628 3.248,-4.68973c0.059,-0.15168 -0.297,-0.187 -1.844,-0.18238l-1.917,0.00561l-2.928,4.12971l-2.928,4.12958l-2.707,0l-2.707,0l0,-4.13532l0,-4.13532l-1.579,0l-1.58,0l0,9.67244zm91.864,-7.68146c-0.82,1.09509 -1.631,2.28034 -1.727,2.40902l1.864,2.62612l0.775,-1.02486c1.301,-1.72002 4.446,-5.81527 4.561,-6.00129c0,0 -0.55,0.00003 -2.055,0.00003l-1.929,0l-1.489,1.99098zm-54.968,7.75155l0,9.60234l5.169,0l5.168,0l0,-1.4018l0,-1.4018l-3.661,0l-3.661,0l0,-8.20054l0,-8.20055l-1.507,0l-1.508,0l0,9.60235zm17.085,-1.11583c0,8.06607 0.013,8.51217 0.273,9.00657c0.318,0.6056 0.747,1.0138 1.449,1.3798c0.471,0.245 0.942,0.2617 7.394,0.2617c6.78,0 6.9,-0.0049 7.465,-0.3018c0.721,-0.3787 1.145,-0.8185 1.429,-1.4829c0.192,-0.449 0.222,-1.656 0.222,-8.93458l0,-8.41531l-1.507,0l-1.508,0l0,8.03233c0,6.06046 -0.042,8.07366 -0.172,8.20056c-0.247,0.2417 -11.611,0.2417 -11.858,0c-0.13,-0.1269 -0.173,-2.1401 -0.173,-8.20056l0,-8.03233l-1.507,0l-1.507,0l0,8.48652zm25.147,-8.37396c0.027,0.06196 1.599,2.17784 3.494,4.70193c1.895,2.52423 3.462,4.63563 3.482,4.69212c0.021,0.05649 -1.574,2.24578 -3.544,4.86538l-3.582,4.7626l1.742,0.0396c0.958,0.0218 1.815,0.0124 1.904,-0.0209c0.088,-0.0333 1.319,-1.611 2.735,-3.5062c1.416,-1.8953 2.639,-3.4271 2.718,-3.4042c0.079,0.023 1.307,1.5974 2.728,3.4988l2.584,3.457l1.901,0.0031l1.901,0.0029l-2.338,-3.119c-1.286,-1.7154 -4.524,-6.0364 -7.195,-9.60235l-4.858,-6.48334l-1.86,0c-1.023,0 -1.838,0.0506 -1.812,0.11256zm-169.645,2.68796l0,5.33302l-11.98758,0l0,-2.66651l0,-2.66651l11.98758,0zm26.3108,3.40246l0.0385,3.32928l-6.0323,0l-6.0323,0l0,-3.27083c0,-1.79907 0.0438,-3.31372 0.0973,-3.36587c0.0534,-0.05229 2.7507,-0.0785 5.9938,-0.05845l5.8965,0.03658l0.0385,3.32929zm-26.3108,4.73111l0,5.2933l-5.99377,0l-5.99381,0.0366l0,-2.665l0,-2.6649l5.86862,0c4.81756,0 6.11896,0 6.11896,0zm155.839,13.212l0,0.8761l-1.37,-0.0488c-1.563,-0.0556 -1.967,0.0132 -2.366,0.4028c-0.251,0.245 -0.284,0.471 -0.284,1.9653c0,1.609 0.017,1.7049 0.355,2.035c0.346,0.338 0.405,0.3461 2.441,0.3335l2.086,-0.0129l0,-3.2137l0,-3.2134l-0.431,0l-0.431,0l0,0.8761zm-7.752,-0.3154c0,0.3738 0.047,0.4205 0.43,0.4205c0.383,0 0.431,-0.0467 0.431,-0.4205c0,-0.3739 -0.048,-0.4206 -0.431,-0.4206c-0.383,0 -0.43,0.0467 -0.43,0.4206zm-20.674,3.5146l0,2.3729l0.431,0l0.431,0c0,0 0.004,0.8411 0.002,-1.577c-0.002,-2.4181 -0.018,-2.2078 1.091,-2.2078l0.917,0l0,-0.4887l0,-0.4888l-1.436,0.0083l-1.436,0.0081l0,2.373zm5.5,-2.0549c-0.378,0.3172 -0.406,0.4178 -0.453,1.6193c-0.062,1.5684 0.042,2.1646 0.443,2.5287c0.278,0.2535 0.507,0.2798 2.434,0.2798l2.126,0l0,-0.4166l0,-0.4166l-1.974,-0.039l-1.974,-0.0389l-0.044,-0.4402l-0.044,-0.4403l1.673,-0.0517c1.932,0 1.747,-0.1192 1.932,-0.3294c0.27,-0.3062 0.172,-2.2291 0,-2.4532c-0.215,-0.2804 -0.861,-0.1281 -2.062,-0.1402c-1.542,0 -1.682,0.023 -2.057,0.3383zm7.774,0.0059c-0.302,0.2945 -0.353,0.4747 -0.353,1.2536c0,1.2588 0.147,1.346 2.257,1.346l1.619,0l0,0.4906l0,0.4907l-1.938,0l-1.938,0l0,0.4205l0,0.4205l2.088,0c2.026,0 2.099,-0.0102 2.441,-0.3441c0.294,-0.2874 0.352,-0.48 0.352,-1.1698c0,-1.1985 -0.122,-1.2712 -2.231,-1.3199l-1.717,-0.0399l0,-0.4205l0,-0.4205l1.974,-0.039l1.974,-0.039l0,-0.4867l0,-0.4867l-2.088,0c-2.025,0 -2.099,0.0102 -2.44,0.3442zm7.4,2.0389l0,2.383l0.43,0l0.431,0l0,-2.383l0,-2.3831l-0.431,0l-0.43,0l0,2.3831zm12.111,-2.2191c-0.494,0.2336 -0.626,0.7349 -0.626,2.3723c0,1.4499 0.021,1.5622 0.352,1.8857c0.342,0.3339 0.415,0.3441 2.441,0.3441l2.088,0l0,-0.4205l0,-0.4205l-1.938,0l-1.938,0l0,-0.4783l0,-0.4782l1.568,-0.0475c1.427,-0.0432 1.601,-0.0779 1.938,-0.3872c0.309,-0.2834 0.37,-0.465 0.37,-1.0928c0,-0.6125 -0.066,-0.8171 -0.352,-1.0969c-0.334,-0.3261 -0.438,-0.3436 -1.974,-0.3347c-0.892,0.0052 -1.76,0.0748 -1.929,0.1545zm7.126,2.229l0,2.3731l0.503,0l0.502,0l0,-1.8924l0,-1.8924l1.508,0l1.507,0l0,1.8924l0,1.8924l0.505,0l0.504,0l-0.046,-2.0514c-0.046,-2.0424 -0.047,-2.0529 -0.442,-2.3846c-0.38,-0.3186 -0.486,-0.3325 -2.469,-0.3217l-2.072,0.0114l0,2.3732zm8.16,-1.9715l-0.431,0.4214l0.048,1.694c0.064,2.2842 -0.006,2.2292 2.863,2.2292l2.138,0l0,-0.4166l0,-0.4166l-1.974,-0.039l-1.974,-0.0389l-0.041,-1.4369l-0.041,-1.4368l2.015,0l2.015,0l0,-0.4907l0,-0.4906l-2.093,0l-2.093,0l-0.432,0.4215zm7.753,0l-0.432,0.4214l0.048,1.694c0.065,2.2842 -0.006,2.2292 2.863,2.2292l2.138,0l0,-0.4166l0,-0.4166l-1.974,-0.039l-1.974,-0.0389l-0.045,-0.4556l-0.045,-0.4556l1.378,0c1.642,0 2.244,-0.1979 2.51,-0.8262c0.26,-0.6119 0.101,-1.4144 -0.356,-1.8022c-0.339,-0.2878 -0.516,-0.3154 -2.025,-0.3154c-1.648,0 -1.656,0.0017 -2.086,0.4215zm-46.779,1.0504l0,0.4906l-1.507,0l-1.508,0l0,-0.4906l0,-0.4906l1.508,0l1.507,0l0,0.4906zm19.309,0.9813l0,1.4018l-1.471,0.0399l-1.472,0.04l0,-1.4817l0,-1.4817l1.472,0.0399l1.471,0.04l0,1.4018zm7.798,-1.0163l-0.045,0.4555l-1.472,0.04l-1.471,0.04l0,-0.4956l0,-0.4955l1.516,0l1.517,0l-0.045,0.4556zm23.257,0l-0.045,0.4555l-1.471,0.04l-1.472,0.04l0,-0.4956l0,-0.4955l1.517,0l1.516,0l-0.045,0.4556z" clip-rule="evenodd" fill-rule="evenodd"/>
  <g stroke="null" id="svg_6">
   <path stroke="null" id="svg_5" fill="#009EE3" d="m143.83073,9.797853l0,9.631745l5.037429,0l5.037419,0l0,-1.406096l0,-1.406096l-3.568176,0l-3.568176,0l0,-8.225649l0,-8.225679l-1.469244,0l-1.469253,0l0,9.631775zm16.651464,-1.119249c0,8.090867 0.013158,8.538234 0.266281,9.034149c0.309946,0.607456 0.728082,1.016907 1.412888,1.384028c0.458584,0.245851 0.917558,0.262602 7.206353,0.262602c6.608682,0 6.725448,-0.005015 7.276237,-0.302825c0.702545,-0.37986 1.115515,-0.821008 1.392615,-1.487444c0.187332,-0.450376 0.216573,-1.661075 0.216573,-8.961938l0,-8.441097l-1.469224,0l-1.469322,0l0,8.056944c0,6.079011 -0.041229,8.09848 -0.167839,8.225669c-0.241232,0.242441 -11.316847,0.242441 -11.558079,0c-0.126708,-0.127189 -0.167936,-2.146658 -0.167936,-8.225669l0,-8.056944l-1.469224,0l-1.469322,0l0,8.512525zm24.226994,-8.653155c0,0 1.841745,2.438058 3.688753,4.969873c1.847105,2.531965 3.374518,4.649835 3.394401,4.706498c0.019883,0.056663 -1.534722,2.252742 -3.454831,4.880269l-3.491089,4.777294l1.698078,0.039621c0.933836,0.021867 1.768839,0.012538 1.855293,-0.020964c0.086454,-0.033302 1.286375,-1.615937 2.666319,-3.516944c1.380139,-1.901007 2.572166,-3.437602 2.649165,-3.414531c0.076902,0.02307 1.273315,1.602195 2.658619,3.509421l2.518656,3.467593l1.852954,0.003109l1.853051,0.002909l-2.278691,-3.128558c-1.253334,-1.720657 -4.40933,-6.054897 -7.01327,-9.631755l-4.796178,-6.643837l-3.80123,0zm-13.172432,24.360691l0.000097,0.878785l-1.335304,-0.04895c-1.523416,-0.05577 -1.917769,0.01324 -2.306664,0.404034c-0.244546,0.245751 -0.27632,0.472443 -0.27632,1.971322c0,1.61393 0.016375,1.710124 0.345814,2.041236c0.337335,0.339036 0.394938,0.347161 2.378693,0.334522l2.033073,-0.01294l0,-3.223447l0,-3.223347l-0.419792,0l-0.419792,0l0.000195,0.878785zm-7.556358,-0.316366c0,0.375046 0.046589,0.421789 0.419792,0.421789c0.373203,0 0.419792,-0.046743 0.419792,-0.421789c0,-0.375046 -0.046589,-0.421789 -0.419792,-0.421789c-0.373203,0 -0.419792,0.046743 -0.419792,0.421789zm-20.149668,3.52537l0,2.380272l0.419783,0l0.419792,0c0,0 0.003908,0.843677 0.001949,-1.581933c-0.001949,-2.42551 -0.017349,-2.214565 1.063886,-2.214565l0.893162,0l0,-0.490198l0,-0.490298l-1.399291,0.008325l-1.399282,0.008125l0,2.380272zm5.360105,-2.061197c-0.36829,0.318172 -0.395718,0.419181 -0.441752,1.624362c-0.060313,1.573106 0.04155,2.171133 0.43181,2.536449c0.271603,0.254176 0.494501,0.280657 2.372348,0.280657l2.072509,0l0,-0.417877l0,-0.417977l-1.924037,-0.039019l-1.924017,-0.03912l-0.042691,-0.441549l-0.042671,-0.441649l1.630172,-0.051858c1.883451,0 1.702854,-0.119565 1.883451,-0.330409c0.26287,-0.307138 0.167741,-2.235931 0,-2.460717c-0.209906,-0.281159 -0.839585,-0.128493 -2.010363,-0.14063c-1.502412,0 -1.638983,0.02307 -2.004759,0.339337zm7.576973,0.005918c-0.294157,0.295402 -0.343475,0.476255 -0.343475,1.257441c0,1.262657 0.142595,1.350125 2.200035,1.350125l1.577998,0l0,0.492204l0,0.492103l-1.889016,0l-1.889016,0l0,0.421789l0,0.421889l2.035218,0c1.974398,0 2.045647,-0.010332 2.37879,-0.345255c0.287042,-0.28818 0.343573,-0.481471 0.343573,-1.173385c0,-1.202173 -0.11969,-1.274995 -2.174791,-1.323945l-1.673321,-0.039922l0,-0.421889l0,-0.421789l1.924007,-0.03912l1.924105,-0.03912l0,-0.488191l0,-0.488191l-2.035315,0c-1.974398,0 -2.045647,0.010332 -2.37879,0.345255zm7.212591,2.045148l0,2.390403l0.419792,0l0.419792,0l0,-2.390403l0,-2.390403l-0.419792,0l-0.419792,0l0,2.390403zm11.804964,-2.2259c-0.481587,0.234316 -0.610634,0.737152 -0.610634,2.379569c0,1.454343 0.020371,1.566987 0.343475,1.891478c0.333241,0.334923 0.404392,0.345255 2.37879,0.345255l2.035315,0l0,-0.421889l0,-0.421789l-1.889016,0l-1.889114,0l0,-0.479766l0,-0.479665l1.528289,-0.047646c1.390763,-0.043332 1.560941,-0.078139 1.889114,-0.388387c0.300785,-0.284268 0.360727,-0.466325 0.360727,-1.096149c0,-0.614377 -0.064134,-0.819604 -0.343573,-1.100261c-0.325444,-0.327099 -0.426225,-0.344653 -1.924007,-0.335625c-0.869215,0.005216 -1.71494,0.074929 -1.879367,0.154873zm6.94553,2.235931l0,2.380372l0.489676,0l0.489774,0l0,-1.898299l0,-1.898199l1.469224,0l1.469322,0l0,1.898199l0,1.898299l0.491821,0l0.492016,0l-0.044932,-2.057686c-0.044835,-2.048759 -0.046589,-2.059291 -0.431391,-2.391907c-0.369889,-0.319677 -0.473692,-0.333519 -2.406081,-0.322786l-2.019428,0.011435l0,2.380573zm7.953343,-1.977541l-0.420572,0.422591l0.046589,1.699191c0.062964,2.2912 -0.005946,2.236131 2.790883,2.236131l2.083367,0l0,-0.417877l0,-0.417977l-1.924007,-0.039019l-1.924007,-0.03912l-0.039864,-1.441303l-0.039962,-1.441203l1.963969,0l1.963871,0l0,-0.492103l0,-0.492204l-2.039799,0l-2.039701,0l-0.420767,0.422892zm7.556163,0l-0.420669,0.422591l0.046589,1.699191c0.062964,2.2912 -0.005848,2.236131 2.790883,2.236131l2.083464,0l0,-0.417877l0,-0.417977l-1.924007,-0.039019l-1.924105,-0.03912l-0.043763,-0.456996l-0.043958,-0.456996l1.342809,0c1.600903,0 2.187169,-0.198506 2.44692,-0.828732c0.253025,-0.613775 0.098637,-1.418734 -0.346789,-1.807723c-0.33061,-0.288582 -0.503322,-0.316366 -1.974495,-0.316366c-1.605386,0 -1.613768,0.001705 -2.032878,0.422892zm-45.594167,1.053518l0,0.492204l-1.469253,0l-1.469253,0l0,-0.492204l0,-0.492103l1.469253,0l1.469253,0l0,0.492103zm18.820349,0.984307l0,1.406096l-1.434233,0.040022l-1.434233,0.040123l0,-1.48624l0,-1.48624l1.434233,0.040022l1.434233,0.040123l0,1.406096zm7.599926,-1.019414l-0.043763,0.456996l-1.434233,0.040022l-1.434331,0.040123l0,-0.497119l0,-0.497018l1.478094,0l1.478191,0l-0.043958,0.456996zm22.66849,0l-0.04386,0.456996l-1.434233,0.040022l-1.434233,0.040123l0,-0.497119l0,-0.497018l1.477996,0l1.478191,0l-0.04386,0.456996z" clip-rule="evenodd" fill-rule="evenodd"/>
  </g>
 </g>
</svg>